<svg width="512" height="512" viewBox="0 0 512 512" fill="none" xmlns="http://www.w3.org/2000/svg">
  <!-- Film strip frame -->
  <rect x="32" y="64" width="448" height="384" rx="24" fill="#2d2d2d" stroke="#FFD700" stroke-width="12"/>
  
  <!-- Film strip holes (left side) -->
  <rect x="56" y="112" width="32" height="32" rx="6" fill="#1a1a1a"/>
  <rect x="56" y="184" width="32" height="32" rx="6" fill="#1a1a1a"/>
  <rect x="56" y="256" width="32" height="32" rx="6" fill="#1a1a1a"/>
  <rect x="56" y="328" width="32" height="32" rx="6" fill="#1a1a1a"/>
  <rect x="56" y="400" width="32" height="32" rx="6" fill="#1a1a1a"/>
  
  <!-- Film strip holes (right side) -->
  <rect x="424" y="112" width="32" height="32" rx="6" fill="#1a1a1a"/>
  <rect x="424" y="184" width="32" height="32" rx="6" fill="#1a1a1a"/>
  <rect x="424" y="256" width="32" height="32" rx="6" fill="#1a1a1a"/>
  <rect x="424" y="328" width="32" height="32" rx="6" fill="#1a1a1a"/>
  <rect x="424" y="400" width="32" height="32" rx="6" fill="#1a1a1a"/>
  
  <!-- Movie frame content area -->
  <rect x="120" y="112" width="272" height="248" rx="12" fill="#3d3d3d"/>
  
  <!-- Stylized movie scene with mountains/landscape -->
  <path d="M120 280 L180 220 L240 260 L300 200 L360 240 L392 220 L392 360 L120 360 Z" fill="#555"/>
  <circle cx="340" cy="180" r="28" fill="#FFD700" opacity="0.6"/>
  
  <!-- Question mark overlay -->
  <g opacity="0.95">
    <circle cx="256" cy="256" r="80" fill="#FFD700"/>
    <text x="256" y="296" font-family="Arial, sans-serif" font-size="96" font-weight="bold" fill="#1a1a1a" text-anchor="middle">?</text>
  </g>
  
  <!-- Bottom text area suggestion -->
  <rect x="120" y="376" width="272" height="56" rx="8" fill="#FFD700" opacity="0.2"/>
</svg>