<svg width="512" height="512" viewBox="0 0 512 512" fill="none" xmlns="http://www.w3.org/2000/svg">
  <!-- Film strip frame -->
  <rect x="80" y="120" width="352" height="272" rx="16" fill="#2d2d2d" stroke="#FFD700" stroke-width="8"/>
  
  <!-- Film strip holes (left side) -->
  <rect x="96" y="152" width="24" height="24" rx="4" fill="#1a1a1a"/>
  <rect x="96" y="204" width="24" height="24" rx="4" fill="#1a1a1a"/>
  <rect x="96" y="256" width="24" height="24" rx="4" fill="#1a1a1a"/>
  <rect x="96" y="308" width="24" height="24" rx="4" fill="#1a1a1a"/>
  
  <!-- Film strip holes (right side) -->
  <rect x="392" y="152" width="24" height="24" rx="4" fill="#1a1a1a"/>
  <rect x="392" y="204" width="24" height="24" rx="4" fill="#1a1a1a"/>
  <rect x="392" y="256" width="24" height="24" rx="4" fill="#1a1a1a"/>
  <rect x="392" y="308" width="24" height="24" rx="4" fill="#1a1a1a"/>
  
  <!-- Movie frame content area -->
  <rect x="144" y="152" width="224" height="168" rx="8" fill="#3d3d3d"/>
  
  <!-- Stylized movie scene with mountains/landscape -->
  <path d="M144 260 L200 200 L256 240 L312 180 L368 220 L368 320 L144 320 Z" fill="#555"/>
  <circle cx="310" cy="190" r="20" fill="#FFD700" opacity="0.6"/>
  
  <!-- Question mark overlay -->
  <g opacity="0.9">
    <circle cx="256" cy="256" r="60" fill="#FFD700"/>
    <text x="256" y="286" font-family="Arial, sans-serif" font-size="72" font-weight="bold" fill="#1a1a1a" text-anchor="middle">?</text>
  </g>
  
  <!-- Bottom text area suggestion -->
  <rect x="144" y="336" width="224" height="40" rx="4" fill="#FFD700" opacity="0.2"/>
</svg>